<svg xmlns="http://www.w3.org/2000/svg" width="200" height="200" viewBox="0 0 200 200" version="1.1"><path d="M 33.500 25.167 C 26.474 29.053, 23.827 35.639, 26.489 42.610 C 29.081 49.398, 37.198 52.976, 44.644 50.613 C 45.929 50.205, 57.820 54.797, 79.546 64.091 C 121.683 82.115, 119.420 81.309, 121.920 79.192 C 124.859 76.704, 136.225 50.033, 135.529 47.259 C 134.877 44.662, 128.853 41.756, 125.053 42.206 C 122.384 42.521, 121.860 43.309, 116.738 54.706 L 113.500 61.911 83.766 49.143 L 54.032 36.374 51.741 32.042 C 48.144 25.240, 39.356 21.928, 33.500 25.167 M 155.500 26.365 C 150.451 28.688, 147.762 32.417, 147.243 37.822 C 146.985 40.509, 147.257 43.611, 147.847 44.714 C 148.740 46.383, 146.310 52.809, 133.392 82.931 C 118.822 116.906, 117.955 119.282, 119.343 121.400 C 120.312 122.879, 125.986 125.816, 135.807 129.919 C 152.636 136.952, 153.363 136.956, 156.477 130.051 C 159.224 123.960, 157.935 122.172, 147.885 118.120 C 143.273 116.261, 139.080 114.356, 138.566 113.886 C 138.003 113.371, 142.757 101.085, 150.524 82.982 C 161.278 57.920, 163.796 52.838, 165.698 52.361 C 168.945 51.546, 173.787 45.652, 174.550 41.587 C 176.495 31.217, 164.971 22.009, 155.500 26.365 M 78.517 31.967 C 74.316 40.258, 74.012 39.915, 92.576 47.884 C 101.693 51.798, 109.735 55, 110.446 55 C 111.157 55, 112.943 52.224, 114.414 48.831 C 116.592 43.808, 116.849 42.433, 115.795 41.437 C 114.254 39.980, 84.147 27, 82.308 27 C 81.607 27, 79.901 29.235, 78.517 31.967 M 34.635 32.073 C 31.333 34.670, 31.022 40.022, 34 43 C 36.978 45.978, 42.330 45.667, 44.927 42.365 C 47.677 38.870, 47.545 35.454, 44.545 32.455 C 41.546 29.455, 38.130 29.323, 34.635 32.073 M 155.455 34.455 C 154.105 35.805, 153 37.583, 153 38.407 C 153 41.217, 155.216 44.777, 157.657 45.890 C 161.084 47.451, 162.359 47.292, 165.365 44.927 C 167.296 43.409, 168 41.939, 168 39.427 C 168 32.495, 160.419 29.490, 155.455 34.455 M 43.820 65.750 C 43 66.713, 41.751 68.963, 41.043 70.751 C 39.151 75.533, 40.982 77.505, 51.329 81.820 C 56.183 83.844, 60.232 85.741, 60.327 86.035 C 60.422 86.330, 54.891 99.999, 48.037 116.412 C 36.443 144.172, 35.314 146.425, 31.861 148.711 C 23.001 154.574, 22.915 166.694, 31.695 172.121 C 43.506 179.420, 57.845 166.539, 51.643 154.200 C 50.363 151.653, 51.130 149.489, 65.143 116.109 C 73.314 96.644, 80 80.176, 80 79.514 C 80 78.852, 79.213 77.612, 78.250 76.759 C 76.121 74.873, 49.560 64, 47.080 64 C 46.107 64, 44.639 64.787, 43.820 65.750 M 157.987 78.024 C 154.597 84.358, 144.090 110.336, 144.590 111.146 C 144.917 111.674, 147.702 113.220, 150.779 114.581 C 155.307 116.584, 156.610 116.812, 157.617 115.778 C 159.211 114.140, 172 84.569, 172 82.520 C 172 81.604, 169.709 79.962, 166.376 78.487 C 159.583 75.483, 159.354 75.471, 157.987 78.024 M 39.700 84.250 C 39.417 84.938, 36.190 92.655, 32.529 101.401 C 25.042 119.285, 24.999 118.499, 33.667 121.886 C 37.790 123.497, 39.046 123.649, 39.887 122.637 C 41.157 121.106, 54 90.448, 54 88.947 C 54 87.831, 43.909 83, 41.578 83 C 40.828 83, 39.983 83.563, 39.700 84.250 M 76.366 119.765 C 74.995 120.653, 63 148.732, 63 151.052 C 63 153.233, 65.675 155.463, 70.214 157.065 C 75.215 158.830, 76.693 157.390, 81.057 146.505 C 82.932 141.827, 84.923 137.996, 85.483 137.991 C 86.042 137.986, 99.697 143.471, 115.826 150.180 C 144.196 161.979, 145.213 162.498, 147.048 166.094 C 152.023 175.846, 163.811 177.767, 170.427 169.904 C 179.174 159.510, 168.625 143.449, 155.954 147.866 C 153.109 148.858, 149.947 147.732, 116.935 133.973 C 97.177 125.738, 80.221 119.007, 79.256 119.015 C 78.290 119.024, 76.990 119.361, 76.366 119.765 M 84.453 149.702 C 83.066 152.838, 82.059 156.031, 82.216 156.797 C 82.486 158.121, 114.062 171.999, 116.805 172 C 118.103 172, 123 162.182, 123 159.578 C 123 158.828, 122.438 157.983, 121.750 157.700 C 121.063 157.417, 113.413 154.219, 104.752 150.593 C 96.091 146.967, 88.548 144, 87.989 144 C 87.431 144, 85.840 146.566, 84.453 149.702 M 34.635 155.073 C 31.191 157.782, 31.043 162.752, 34.314 165.826 C 40.483 171.620, 49.462 164.662, 45.558 157.113 C 43.162 152.479, 38.935 151.690, 34.635 155.073 M 155.025 155.821 C 151.391 159.455, 151.215 161.976, 154.342 165.611 C 158.908 170.920, 167.333 167.930, 167.333 161 C 167.333 157.419, 164.730 154.426, 160.775 153.461 C 158.579 152.925, 157.464 153.382, 155.025 155.821" stroke="none" fill="#266a72" fill-rule="evenodd"/><path d="M -0 100.005 L -0 200.010 100.250 199.755 L 200.500 199.500 200.755 99.750 L 201.010 0 100.505 0 L 0 0 -0 100.005 M 0.481 100.500 C 0.481 155.500, 0.602 178.147, 0.750 150.826 C 0.898 123.506, 0.898 78.506, 0.750 50.826 C 0.602 23.147, 0.481 45.500, 0.481 100.500 M 33.500 25.167 C 26.474 29.053, 23.827 35.639, 26.489 42.610 C 29.081 49.398, 37.198 52.976, 44.644 50.613 C 45.929 50.205, 57.820 54.797, 79.546 64.091 C 121.683 82.115, 119.420 81.309, 121.920 79.192 C 124.859 76.704, 136.225 50.033, 135.529 47.259 C 134.877 44.662, 128.853 41.756, 125.053 42.206 C 122.384 42.521, 121.860 43.309, 116.738 54.706 L 113.500 61.911 83.766 49.143 L 54.032 36.374 51.741 32.042 C 48.144 25.240, 39.356 21.928, 33.500 25.167 M 155.500 26.365 C 150.451 28.688, 147.762 32.417, 147.243 37.822 C 146.985 40.509, 147.257 43.611, 147.847 44.714 C 148.740 46.383, 146.310 52.809, 133.392 82.931 C 118.822 116.906, 117.955 119.282, 119.343 121.400 C 120.312 122.879, 125.986 125.816, 135.807 129.919 C 152.636 136.952, 153.363 136.956, 156.477 130.051 C 159.224 123.960, 157.935 122.172, 147.885 118.120 C 143.273 116.261, 139.080 114.356, 138.566 113.886 C 138.003 113.371, 142.757 101.085, 150.524 82.982 C 161.278 57.920, 163.796 52.838, 165.698 52.361 C 168.945 51.546, 173.787 45.652, 174.550 41.587 C 176.495 31.217, 164.971 22.009, 155.500 26.365 M 78.517 31.967 C 74.316 40.258, 74.012 39.915, 92.576 47.884 C 101.693 51.798, 109.735 55, 110.446 55 C 111.157 55, 112.943 52.224, 114.414 48.831 C 116.592 43.808, 116.849 42.433, 115.795 41.437 C 114.254 39.980, 84.147 27, 82.308 27 C 81.607 27, 79.901 29.235, 78.517 31.967 M 34.635 32.073 C 31.333 34.670, 31.022 40.022, 34 43 C 36.978 45.978, 42.330 45.667, 44.927 42.365 C 47.677 38.870, 47.545 35.454, 44.545 32.455 C 41.546 29.455, 38.130 29.323, 34.635 32.073 M 155.455 34.455 C 154.105 35.805, 153 37.583, 153 38.407 C 153 41.217, 155.216 44.777, 157.657 45.890 C 161.084 47.451, 162.359 47.292, 165.365 44.927 C 167.296 43.409, 168 41.939, 168 39.427 C 168 32.495, 160.419 29.490, 155.455 34.455 M 43.820 65.750 C 43 66.713, 41.751 68.963, 41.043 70.751 C 39.151 75.533, 40.982 77.505, 51.329 81.820 C 56.183 83.844, 60.232 85.741, 60.327 86.035 C 60.422 86.330, 54.891 99.999, 48.037 116.412 C 36.443 144.172, 35.314 146.425, 31.861 148.711 C 23.001 154.574, 22.915 166.694, 31.695 172.121 C 43.506 179.420, 57.845 166.539, 51.643 154.200 C 50.363 151.653, 51.130 149.489, 65.143 116.109 C 73.314 96.644, 80 80.176, 80 79.514 C 80 78.852, 79.213 77.612, 78.250 76.759 C 76.121 74.873, 49.560 64, 47.080 64 C 46.107 64, 44.639 64.787, 43.820 65.750 M 157.987 78.024 C 154.597 84.358, 144.090 110.336, 144.590 111.146 C 144.917 111.674, 147.702 113.220, 150.779 114.581 C 155.307 116.584, 156.610 116.812, 157.617 115.778 C 159.211 114.140, 172 84.569, 172 82.520 C 172 81.604, 169.709 79.962, 166.376 78.487 C 159.583 75.483, 159.354 75.471, 157.987 78.024 M 39.700 84.250 C 39.417 84.938, 36.190 92.655, 32.529 101.401 C 25.042 119.285, 24.999 118.499, 33.667 121.886 C 37.790 123.497, 39.046 123.649, 39.887 122.637 C 41.157 121.106, 54 90.448, 54 88.947 C 54 87.831, 43.909 83, 41.578 83 C 40.828 83, 39.983 83.563, 39.700 84.250 M 76.366 119.765 C 74.995 120.653, 63 148.732, 63 151.052 C 63 153.233, 65.675 155.463, 70.214 157.065 C 75.215 158.830, 76.693 157.390, 81.057 146.505 C 82.932 141.827, 84.923 137.996, 85.483 137.991 C 86.042 137.986, 99.697 143.471, 115.826 150.180 C 144.196 161.979, 145.213 162.498, 147.048 166.094 C 152.023 175.846, 163.811 177.767, 170.427 169.904 C 179.174 159.510, 168.625 143.449, 155.954 147.866 C 153.109 148.858, 149.947 147.732, 116.935 133.973 C 97.177 125.738, 80.221 119.007, 79.256 119.015 C 78.290 119.024, 76.990 119.361, 76.366 119.765 M 84.453 149.702 C 83.066 152.838, 82.059 156.031, 82.216 156.797 C 82.486 158.121, 114.062 171.999, 116.805 172 C 118.103 172, 123 162.182, 123 159.578 C 123 158.828, 122.438 157.983, 121.750 157.700 C 121.063 157.417, 113.413 154.219, 104.752 150.593 C 96.091 146.967, 88.548 144, 87.989 144 C 87.431 144, 85.840 146.566, 84.453 149.702 M 34.635 155.073 C 31.191 157.782, 31.043 162.752, 34.314 165.826 C 40.483 171.620, 49.462 164.662, 45.558 157.113 C 43.162 152.479, 38.935 151.690, 34.635 155.073 M 155.025 155.821 C 151.391 159.455, 151.215 161.976, 154.342 165.611 C 158.908 170.920, 167.333 167.930, 167.333 161 C 167.333 157.419, 164.730 154.426, 160.775 153.461 C 158.579 152.925, 157.464 153.382, 155.025 155.821" stroke="none" fill="#fafafa" fill-rule="evenodd"/></svg>